<?xml version="1.0" encoding="UTF-8" standalone="no"?>
<!DOCTYPE svg PUBLIC "-//W3C//DTD SVG 1.1//EN"
 "http://www.w3.org/Graphics/SVG/1.1/DTD/svg11.dtd">
<!-- Generated by graphviz version 2.40.1 (20161225.0304)
 -->
<!-- Pages: 1 -->
<svg width="525pt" height="310pt"
 viewBox="0.00 0.00 525.10 310.40" xmlns="http://www.w3.org/2000/svg" xmlns:xlink="http://www.w3.org/1999/xlink">
<g id="graph0" class="graph" transform="scale(1 1) rotate(0) translate(4 306.4)">
<polygon fill="#ffffff" stroke="transparent" points="-4,4 -4,-306.4 521.1042,-306.4 521.1042,4 -4,4"/>
<!-- 10.244.0.7 -->
<g id="node1" class="node">
<title>10.244.0.7</title>
<ellipse fill="none" stroke="#000000" cx="315.999" cy="-284.4" rx="52.1572" ry="18"/>
<text text-anchor="middle" x="315.999" y="-280.2" font-family="Times,serif" font-size="14.00" fill="#000000">10.244.0.7</text>
</g>
<!-- 10.244.0.7&#45;&gt;10.244.0.7 -->
<g id="edge1" class="edge">
<title>10.244.0.7&#45;&gt;10.244.0.7</title>
<path fill="none" stroke="#000000" stroke-width="2" d="M362.4992,-292.6178C375.8121,-292.2955 386.0775,-289.5563 386.0775,-284.4 386.0775,-280.6537 380.6585,-278.1832 372.5888,-276.9887"/>
<polygon fill="#000000" stroke="#000000" stroke-width="2" points="372.7463,-273.4902 362.4992,-276.1822 372.1885,-280.468 372.7463,-273.4902"/>
<text text-anchor="middle" x="415.6301" y="-280.2" font-family="Times,serif" font-size="14.00" fill="#000000">141.089µs</text>
</g>
<!-- 10.244.1.4 -->
<g id="node2" class="node">
<title>10.244.1.4</title>
<ellipse fill="none" stroke="#000000" cx="114.999" cy="-195.6" rx="52.1572" ry="18"/>
<text text-anchor="middle" x="114.999" y="-191.4" font-family="Times,serif" font-size="14.00" fill="#000000">10.244.1.4</text>
</g>
<!-- 10.244.0.7&#45;&gt;10.244.1.4 -->
<g id="edge2" class="edge">
<title>10.244.0.7&#45;&gt;10.244.1.4</title>
<path fill="none" stroke="#000000" stroke-width="2" d="M263.7247,-282.4739C210.3258,-279.2772 132.6596,-270.8039 113.8938,-248.4 108.2235,-241.6304 106.9762,-232.4812 107.6265,-223.7009"/>
<polygon fill="#000000" stroke="#000000" stroke-width="2" points="111.1005,-224.1341 109.1101,-213.7279 104.1767,-223.104 111.1005,-224.1341"/>
<text text-anchor="middle" x="143.5516" y="-235.8" font-family="Times,serif" font-size="14.00" fill="#000000">271.497µs</text>
</g>
<!-- 10.244.2.4 -->
<g id="node3" class="node">
<title>10.244.2.4</title>
<ellipse fill="none" stroke="#000000" cx="242.999" cy="-18" rx="52.1572" ry="18"/>
<text text-anchor="middle" x="242.999" y="-13.8" font-family="Times,serif" font-size="14.00" fill="#000000">10.244.2.4</text>
</g>
<!-- 10.244.0.7&#45;&gt;10.244.2.4 -->
<g id="edge3" class="edge">
<title>10.244.0.7&#45;&gt;10.244.2.4</title>
<path fill="none" stroke="#000000" stroke-width="2" d="M345.0914,-269.2198C364.8914,-257.1092 389.5101,-238.1219 400.999,-213.6 407.7872,-199.1114 403.9081,-193.3333 400.999,-177.6 389.3164,-114.4154 380.5585,-87.9418 325.999,-54 314.4149,-46.7935 301.1366,-40.3328 288.6474,-34.9416"/>
<polygon fill="#000000" stroke="#000000" stroke-width="2" points="289.8681,-31.6585 279.2917,-31.0327 287.1694,-38.1174 289.8681,-31.6585"/>
<text text-anchor="middle" x="423.0516" y="-147" font-family="Times,serif" font-size="14.00" fill="#000000">92.424µs</text>
</g>
<!-- 10.244.3.4 -->
<g id="node4" class="node">
<title>10.244.3.4</title>
<ellipse fill="none" stroke="#000000" cx="242.999" cy="-106.8" rx="52.1572" ry="18"/>
<text text-anchor="middle" x="242.999" y="-102.6" font-family="Times,serif" font-size="14.00" fill="#000000">10.244.3.4</text>
</g>
<!-- 10.244.0.7&#45;&gt;10.244.3.4 -->
<g id="edge4" class="edge">
<title>10.244.0.7&#45;&gt;10.244.3.4</title>
<path fill="none" stroke="#000000" stroke-width="2" d="M324.7258,-266.4469C334.109,-244.4282 345.9268,-206.4768 331.999,-177.6 321.5584,-155.9532 300.9252,-138.8851 282.1526,-126.9355"/>
<polygon fill="#000000" stroke="#000000" stroke-width="2" points="283.7877,-123.8339 273.4214,-121.6454 280.1603,-129.8208 283.7877,-123.8339"/>
<text text-anchor="middle" x="367.5516" y="-191.4" font-family="Times,serif" font-size="14.00" fill="#000000">150.971µs</text>
</g>
<!-- 10.244.1.4&#45;&gt;10.244.0.7 -->
<g id="edge5" class="edge">
<title>10.244.1.4&#45;&gt;10.244.0.7</title>
<path fill="none" stroke="#000000" stroke-width="2" d="M141.2589,-211.3045C151.2996,-217.4636 162.7867,-224.6989 172.999,-231.6 183.4563,-238.6666 184.5966,-242.7728 195.8938,-248.4 216.4993,-258.6637 240.5763,-266.591 261.7405,-272.3606"/>
<polygon fill="#000000" stroke="#000000" stroke-width="2" points="260.99,-275.7822 271.5513,-274.9402 262.7701,-269.0123 260.99,-275.7822"/>
<text text-anchor="middle" x="224.5516" y="-235.8" font-family="Times,serif" font-size="14.00" fill="#000000">521.323µs</text>
</g>
<!-- 10.244.1.4&#45;&gt;10.244.1.4 -->
<g id="edge6" class="edge">
<title>10.244.1.4&#45;&gt;10.244.1.4</title>
<path fill="none" stroke="#000000" stroke-width="2" d="M161.4992,-203.8178C174.8121,-203.4955 185.0775,-200.7563 185.0775,-195.6 185.0775,-191.8537 179.6585,-189.3832 171.5888,-188.1887"/>
<polygon fill="#000000" stroke="#000000" stroke-width="2" points="171.7463,-184.6902 161.4992,-187.3822 171.1885,-191.668 171.7463,-184.6902"/>
<text text-anchor="middle" x="207.6301" y="-191.4" font-family="Times,serif" font-size="14.00" fill="#000000">85.54µs</text>
</g>
<!-- 10.244.1.4&#45;&gt;10.244.2.4 -->
<g id="edge7" class="edge">
<title>10.244.1.4&#45;&gt;10.244.2.4</title>
<path fill="none" stroke="#000000" stroke-width="2" d="M81.2137,-181.8774C40.9502,-163.3865 -18.0633,-128.2108 5.8938,-88.8 24.6134,-58.0053 120.6351,-37.1652 184.596,-26.4584"/>
<polygon fill="#000000" stroke="#000000" stroke-width="2" points="185.2655,-29.8955 194.5693,-24.827 184.1354,-22.9873 185.2655,-29.8955"/>
<text text-anchor="middle" x="35.5516" y="-102.6" font-family="Times,serif" font-size="14.00" fill="#000000">129.907µs</text>
</g>
<!-- 10.244.1.4&#45;&gt;10.244.3.4 -->
<g id="edge8" class="edge">
<title>10.244.1.4&#45;&gt;10.244.3.4</title>
<path fill="none" stroke="#000000" stroke-width="2" d="M141.3073,-179.9666C151.3539,-173.8163 162.8324,-166.5683 172.999,-159.6 180.8917,-154.1903 197.9141,-141.3602 213.1958,-129.7025"/>
<polygon fill="#000000" stroke="#000000" stroke-width="2" points="215.6192,-132.2555 221.4375,-123.4012 211.3675,-126.6946 215.6192,-132.2555"/>
<text text-anchor="middle" x="224.5516" y="-147" font-family="Times,serif" font-size="14.00" fill="#000000">127.572µs</text>
</g>
<!-- 10.244.2.4&#45;&gt;10.244.0.7 -->
<g id="edge9" class="edge">
<title>10.244.2.4&#45;&gt;10.244.0.7</title>
<path fill="none" stroke="#000000" stroke-width="2" d="M286.3169,-28.0085C338.5465,-42.8135 423.0484,-76.2861 452.999,-142.8 474.9845,-191.6249 435.6104,-213.5009 394.999,-248.4 385.8005,-256.3047 374.5792,-262.797 363.5156,-267.9838"/>
<polygon fill="#000000" stroke="#000000" stroke-width="2" points="362.0504,-264.8045 354.3072,-272.0359 364.8699,-271.2116 362.0504,-264.8045"/>
<text text-anchor="middle" x="487.5516" y="-147" font-family="Times,serif" font-size="14.00" fill="#000000">225.159µs</text>
</g>
<!-- 10.244.2.4&#45;&gt;10.244.1.4 -->
<g id="edge10" class="edge">
<title>10.244.2.4&#45;&gt;10.244.1.4</title>
<path fill="none" stroke="#000000" stroke-width="2" d="M206.4536,-31.013C179.6478,-42.3465 144.3246,-61.312 122.8938,-88.8 103.0647,-114.2335 103.48,-127.5427 106.999,-159.6 107.2802,-162.1616 107.6707,-164.8076 108.1293,-167.4482"/>
<polygon fill="#000000" stroke="#000000" stroke-width="2" points="104.7324,-168.3087 110.1473,-177.4153 111.5932,-166.9196 104.7324,-168.3087"/>
<text text-anchor="middle" x="151.5516" y="-102.6" font-family="Times,serif" font-size="14.00" fill="#000000">142.715µs</text>
</g>
<!-- 10.244.2.4&#45;&gt;10.244.2.4 -->
<g id="edge11" class="edge">
<title>10.244.2.4&#45;&gt;10.244.2.4</title>
<path fill="none" stroke="#000000" stroke-width="2" d="M289.4992,-26.2178C302.8121,-25.8955 313.0775,-23.1563 313.0775,-18 313.0775,-14.2537 307.6585,-11.7832 299.5888,-10.5887"/>
<polygon fill="#000000" stroke="#000000" stroke-width="2" points="299.7463,-7.0902 289.4992,-9.7822 299.1885,-14.068 299.7463,-7.0902"/>
<text text-anchor="middle" x="339.1301" y="-13.8" font-family="Times,serif" font-size="14.00" fill="#000000">94.678µs</text>
</g>
<!-- 10.244.2.4&#45;&gt;10.244.3.4 -->
<g id="edge12" class="edge">
<title>10.244.2.4&#45;&gt;10.244.3.4</title>
<path fill="none" stroke="#000000" stroke-width="2" d="M254.4765,-35.6234C257.5423,-41.2647 260.4358,-47.689 261.999,-54 263.7942,-61.2476 263.7942,-63.5524 261.999,-70.8 261.2418,-73.8569 260.1725,-76.9404 258.9227,-79.9486"/>
<polygon fill="#000000" stroke="#000000" stroke-width="2" points="255.6641,-78.6485 254.4765,-89.1766 261.9703,-81.6869 255.6641,-78.6485"/>
<text text-anchor="middle" x="292.5516" y="-58.2" font-family="Times,serif" font-size="14.00" fill="#000000">140.607µs</text>
</g>
<!-- 10.244.3.4&#45;&gt;10.244.0.7 -->
<g id="edge13" class="edge">
<title>10.244.3.4&#45;&gt;10.244.0.7</title>
<path fill="none" stroke="#000000" stroke-width="2" d="M249.5612,-124.9777C251.4695,-130.6415 253.4539,-136.9392 254.999,-142.8 263.1737,-173.8075 256.6895,-183.9463 268.8938,-213.6 275.4679,-229.5735 285.8721,-245.7348 295.2322,-258.5756"/>
<polygon fill="#000000" stroke="#000000" stroke-width="2" points="292.6782,-261.0029 301.4856,-266.8919 298.273,-256.7959 292.6782,-261.0029"/>
<text text-anchor="middle" x="297.5516" y="-191.4" font-family="Times,serif" font-size="14.00" fill="#000000">476.542µs</text>
</g>
<!-- 10.244.3.4&#45;&gt;10.244.1.4 -->
<g id="edge14" class="edge">
<title>10.244.3.4&#45;&gt;10.244.1.4</title>
<path fill="none" stroke="#000000" stroke-width="2" d="M195.5099,-114.4162C164.0398,-120.5245 126.7895,-130.1619 116.8938,-142.8 111.5066,-149.6801 109.8665,-158.7515 109.9307,-167.4304"/>
<polygon fill="#000000" stroke="#000000" stroke-width="2" points="106.46,-167.9466 110.717,-177.6485 113.4394,-167.4095 106.46,-167.9466"/>
<text text-anchor="middle" x="142.0516" y="-147" font-family="Times,serif" font-size="14.00" fill="#000000">90.651µs</text>
</g>
<!-- 10.244.3.4&#45;&gt;10.244.2.4 -->
<g id="edge15" class="edge">
<title>10.244.3.4&#45;&gt;10.244.2.4</title>
<path fill="none" stroke="#000000" stroke-width="2" d="M216.2258,-91.1572C209.2914,-85.6718 202.7079,-78.8365 198.8938,-70.8 193.6407,-59.7313 199.6788,-49.0556 208.8028,-40.235"/>
<polygon fill="#000000" stroke="#000000" stroke-width="2" points="211.2719,-42.7299 216.625,-33.5868 206.7386,-37.3961 211.2719,-42.7299"/>
<text text-anchor="middle" x="227.5516" y="-58.2" font-family="Times,serif" font-size="14.00" fill="#000000">114.585µs</text>
</g>
<!-- 10.244.3.4&#45;&gt;10.244.3.4 -->
<g id="edge16" class="edge">
<title>10.244.3.4&#45;&gt;10.244.3.4</title>
<path fill="none" stroke="#000000" stroke-width="2" d="M289.4992,-115.0178C302.8121,-114.6955 313.0775,-111.9563 313.0775,-106.8 313.0775,-103.0537 307.6585,-100.5832 299.5888,-99.3887"/>
<polygon fill="#000000" stroke="#000000" stroke-width="2" points="299.7463,-95.8902 289.4992,-98.5822 299.1885,-102.868 299.7463,-95.8902"/>
<text text-anchor="middle" x="335.6301" y="-102.6" font-family="Times,serif" font-size="14.00" fill="#000000">163.2µs</text>
</g>
</g>
</svg>
